<svg width="329" height="48" viewBox="0 0 329 48" fill="none" xmlns="http://www.w3.org/2000/svg">
<g filter="url(#filter0_b_2815_219)">
<rect x="0.952759" y="0.51416" width="327.409" height="46.6927" rx="4" fill="white" fill-opacity="0.02"/>
<rect x="1.76135" y="1.32275" width="325.792" height="45.0755" rx="3.19141" stroke="url(#paint0_linear_2815_219)" stroke-width="1.61719"/>
</g>
<path d="M131.962 29.4444C131.224 29.4444 130.543 29.323 129.918 29.0804C129.292 28.8284 128.751 28.4784 128.294 28.0304C127.836 27.5824 127.477 27.055 127.216 26.4484C126.964 25.8417 126.838 25.179 126.838 24.4604C126.838 23.7417 126.964 23.079 127.216 22.4724C127.477 21.8657 127.836 21.3384 128.294 20.8904C128.76 20.4424 129.306 20.097 129.932 19.8544C130.557 19.6024 131.238 19.4764 131.976 19.4764C132.685 19.4764 133.352 19.5977 133.978 19.8404C134.603 20.0737 135.13 20.4284 135.56 20.9044L134.902 21.5624C134.5 21.1517 134.057 20.8577 133.572 20.6804C133.086 20.4937 132.564 20.4004 132.004 20.4004C131.416 20.4004 130.87 20.503 130.366 20.7084C129.862 20.9044 129.423 21.189 129.05 21.5624C128.676 21.9264 128.382 22.3557 128.168 22.8504C127.962 23.3357 127.86 23.8724 127.86 24.4604C127.86 25.0484 127.962 25.5897 128.168 26.0844C128.382 26.5697 128.676 26.999 129.05 27.3724C129.423 27.7364 129.862 28.021 130.366 28.2264C130.87 28.4224 131.416 28.5204 132.004 28.5204C132.564 28.5204 133.086 28.427 133.572 28.2404C134.057 28.0537 134.5 27.755 134.902 27.3444L135.56 28.0024C135.13 28.4784 134.603 28.8377 133.978 29.0804C133.352 29.323 132.68 29.4444 131.962 29.4444ZM141.847 29.4444C141.11 29.4444 140.424 29.323 139.789 29.0804C139.164 28.8284 138.618 28.4784 138.151 28.0304C137.694 27.573 137.334 27.0457 137.073 26.4484C136.821 25.8417 136.695 25.179 136.695 24.4604C136.695 23.7417 136.821 23.0837 137.073 22.4864C137.334 21.8797 137.694 21.3524 138.151 20.9044C138.618 20.447 139.164 20.097 139.789 19.8544C140.414 19.6024 141.1 19.4764 141.847 19.4764C142.584 19.4764 143.266 19.6024 143.891 19.8544C144.516 20.097 145.058 20.4424 145.515 20.8904C145.982 21.3384 146.341 21.8657 146.593 22.4724C146.854 23.079 146.985 23.7417 146.985 24.4604C146.985 25.179 146.854 25.8417 146.593 26.4484C146.341 27.055 145.982 27.5824 145.515 28.0304C145.058 28.4784 144.516 28.8284 143.891 29.0804C143.266 29.323 142.584 29.4444 141.847 29.4444ZM141.847 28.5204C142.435 28.5204 142.976 28.4224 143.471 28.2264C143.975 28.021 144.409 27.7364 144.773 27.3724C145.146 26.999 145.436 26.5697 145.641 26.0844C145.846 25.5897 145.949 25.0484 145.949 24.4604C145.949 23.8724 145.846 23.3357 145.641 22.8504C145.436 22.3557 145.146 21.9264 144.773 21.5624C144.409 21.189 143.975 20.9044 143.471 20.7084C142.976 20.503 142.435 20.4004 141.847 20.4004C141.259 20.4004 140.713 20.503 140.209 20.7084C139.705 20.9044 139.266 21.189 138.893 21.5624C138.529 21.9264 138.24 22.3557 138.025 22.8504C137.82 23.3357 137.717 23.8724 137.717 24.4604C137.717 25.039 137.82 25.5757 138.025 26.0704C138.24 26.565 138.529 26.999 138.893 27.3724C139.266 27.7364 139.705 28.021 140.209 28.2264C140.713 28.4224 141.259 28.5204 141.847 28.5204ZM149.307 29.3604V19.5604H150.161L156.923 28.0724H156.475V19.5604H157.497V29.3604H156.643L149.895 20.8484H150.343V29.3604H149.307ZM162.6 29.3604V20.4564H159.156V19.5604H167.08V20.4564H163.636V29.3604H162.6ZM168.735 29.3604V19.5604H169.771V29.3604H168.735ZM172.96 29.3604V19.5604H173.814L180.576 28.0724H180.128V19.5604H181.15V29.3604H180.296L173.548 20.8484H173.996V29.3604H172.96ZM188.296 29.4444C187.046 29.4444 186.061 29.085 185.342 28.3664C184.624 27.6477 184.264 26.5837 184.264 25.1744V19.5604H185.3V25.1324C185.3 26.2897 185.562 27.1437 186.084 27.6944C186.607 28.245 187.344 28.5204 188.296 28.5204C189.258 28.5204 190 28.245 190.522 27.6944C191.045 27.1437 191.306 26.2897 191.306 25.1324V19.5604H192.314V25.1744C192.314 26.5837 191.955 27.6477 191.236 28.3664C190.527 29.085 189.547 29.4444 188.296 29.4444ZM196.36 23.9424H201.54V24.8244H196.36V23.9424ZM196.472 28.4644H202.366V29.3604H195.436V19.5604H202.156V20.4564H196.472V28.4644Z" fill="white"/>
<defs>
<filter id="filter0_b_2815_219" x="-16.9172" y="-17.3558" width="363.149" height="82.4327" filterUnits="userSpaceOnUse" color-interpolation-filters="sRGB">
<feFlood flood-opacity="0" result="BackgroundImageFix"/>
<feGaussianBlur in="BackgroundImageFix" stdDeviation="8.93496"/>
<feComposite in2="SourceAlpha" operator="in" result="effect1_backgroundBlur_2815_219"/>
<feBlend mode="normal" in="SourceGraphic" in2="effect1_backgroundBlur_2815_219" result="shape"/>
</filter>
<linearGradient id="paint0_linear_2815_219" x1="-8.55945" y1="49.6914" x2="316.431" y2="-21.498" gradientUnits="userSpaceOnUse">
<stop stop-color="#01E069"/>
<stop offset="0.625" stop-color="#018CC5"/>
<stop offset="1" stop-color="#0163F2"/>
</linearGradient>
</defs>
</svg>
