<svg width="328" height="42" viewBox="0 0 328 42" fill="none" xmlns="http://www.w3.org/2000/svg">
<rect x="0.79541" y="0.828125" width="326.409" height="39.7826" rx="3.5" fill="#131314" stroke="#8E918F"/>
<path d="M47.5124 15.7227H54.5964V16.7167H48.6604V20.0627H54.2604V21.0567H48.6604V24.7247H54.8344V25.7188H47.5124V15.7227ZM59.4505 18.2847C60.5611 18.2847 61.3171 18.7421 61.7185 19.6567C61.9985 19.1714 62.3345 18.8261 62.7265 18.6207C63.0811 18.3967 63.5058 18.2847 64.0005 18.2847C64.7471 18.2847 65.3585 18.5227 65.8345 18.9987C66.2918 19.5027 66.5205 20.1607 66.5205 20.9727V25.7188H65.4005V21.1547C65.4005 20.5201 65.2651 20.0441 64.9945 19.7267C64.7238 19.4001 64.2758 19.2367 63.6505 19.2367C63.1558 19.2367 62.7591 19.4141 62.4605 19.7687C62.1338 20.1234 61.9705 20.5947 61.9705 21.1827V25.7188H60.8505V21.1547C60.8505 19.8761 60.2951 19.2367 59.1845 19.2367C58.6618 19.2367 58.2371 19.4421 57.9105 19.8527C57.5745 20.2447 57.4065 20.7301 57.4065 21.3087V25.7188H56.2865V18.4807H57.4065V19.4467C57.9478 18.6721 58.6291 18.2847 59.4505 18.2847ZM71.413 18.2847C72.4397 18.2847 73.205 18.5554 73.709 19.0967C74.1384 19.5821 74.353 20.2401 74.353 21.0707V25.7188H73.303V24.5007C73.0137 24.9021 72.6404 25.2287 72.183 25.4807C71.6324 25.7701 71.035 25.9148 70.391 25.9148C69.663 25.9148 69.0844 25.7281 68.655 25.3547C68.207 24.9721 67.983 24.4634 67.983 23.8287C67.983 22.9047 68.3517 22.2327 69.089 21.8127C69.6864 21.4581 70.489 21.2807 71.497 21.2807L73.233 21.2667V21.0287C73.233 19.8154 72.603 19.2087 71.343 19.2087C70.755 19.2087 70.2977 19.3301 69.971 19.5727C69.607 19.8247 69.383 20.1981 69.299 20.6927H68.193C68.305 19.8621 68.6597 19.2461 69.257 18.8447C69.7797 18.4714 70.4984 18.2847 71.413 18.2847ZM73.233 22.1487L71.567 22.1627C69.943 22.1627 69.131 22.7134 69.131 23.8147C69.131 24.1694 69.2617 24.4587 69.523 24.6827C69.7937 24.8974 70.1624 25.0047 70.629 25.0047C71.357 25.0047 71.9777 24.7807 72.491 24.3327C72.9857 23.8847 73.233 23.3667 73.233 22.7787V22.1487ZM77.0073 15.7507C77.25 15.7507 77.4507 15.8301 77.6093 15.9887C77.7773 16.1287 77.8613 16.3247 77.8613 16.5767C77.8613 16.8101 77.7773 17.0107 77.6093 17.1787C77.432 17.3374 77.2313 17.4167 77.0073 17.4167C76.7833 17.4167 76.5827 17.3374 76.4053 17.1787C76.2467 17.0201 76.1673 16.8194 76.1673 16.5767C76.1673 16.3154 76.2467 16.1194 76.4053 15.9887C76.564 15.8301 76.7647 15.7507 77.0073 15.7507ZM76.4473 18.4807H77.5673V25.7188H76.4473V18.4807ZM79.8894 15.5267H80.9954V25.7188H79.8894V15.5267ZM87.6224 18.4807H88.7424V22.9047C88.7424 23.6047 88.8871 24.1181 89.1764 24.4447C89.4751 24.7901 89.9511 24.9627 90.6044 24.9627C91.0711 24.9627 91.5004 24.7761 91.8924 24.4027C92.2844 24.0107 92.5224 23.5067 92.6064 22.8907V18.4807H93.7264V25.7188H92.6064V24.5987C92.0091 25.4761 91.2251 25.9148 90.2544 25.9148C88.4997 25.9148 87.6224 24.9301 87.6224 22.9607V18.4807ZM98.0184 18.2847C99.801 18.2847 100.79 19.0361 100.986 20.5387H99.8944C99.7917 20.0721 99.605 19.7454 99.3344 19.5587C99.0264 19.3347 98.583 19.2227 98.0044 19.2227C97.491 19.2227 97.099 19.3161 96.8284 19.5027C96.5204 19.6801 96.3664 19.9321 96.3664 20.2587C96.3664 20.5761 96.5717 20.8374 96.9824 21.0427C97.2157 21.1547 97.715 21.3134 98.4804 21.5187C99.339 21.7241 99.9597 21.9481 100.342 22.1907C100.921 22.5547 101.21 23.0494 101.21 23.6747C101.21 25.1681 100.188 25.9148 98.1444 25.9148C96.2404 25.9148 95.2044 25.0794 95.0364 23.4087H96.1284C96.2124 23.9687 96.413 24.3794 96.7304 24.6407C97.0384 24.8647 97.5004 24.9767 98.1164 24.9767C99.4137 24.9767 100.062 24.5661 100.062 23.7447C100.062 23.3434 99.8337 23.0307 99.3764 22.8067C99.143 22.6947 98.6297 22.5407 97.8364 22.3447C96.9684 22.1301 96.371 21.9154 96.0444 21.7007C95.4937 21.3741 95.2184 20.9027 95.2184 20.2867C95.2184 19.6801 95.489 19.1947 96.0304 18.8307C96.5344 18.4667 97.197 18.2847 98.0184 18.2847ZM110.575 18.2847C112.376 18.2847 113.277 19.2787 113.277 21.2667V25.7188H112.157V21.3507C112.157 19.9414 111.522 19.2367 110.253 19.2367C109.749 19.2367 109.315 19.4187 108.951 19.7827C108.568 20.1654 108.354 20.6881 108.307 21.3507V25.7188H107.187V18.4807H108.307V19.5447C108.559 19.1341 108.881 18.8261 109.273 18.6207C109.665 18.3967 110.099 18.2847 110.575 18.2847ZM118.241 18.2847C119.333 18.2847 120.196 18.6581 120.831 19.4047C121.447 20.1141 121.755 21.0147 121.755 22.1067C121.755 23.1801 121.452 24.0714 120.845 24.7807C120.192 25.5367 119.324 25.9148 118.241 25.9148C117.158 25.9148 116.295 25.5367 115.651 24.7807C115.035 24.0807 114.727 23.1894 114.727 22.1067C114.727 21.0147 115.035 20.1141 115.651 19.4047C116.286 18.6581 117.149 18.2847 118.241 18.2847ZM118.241 19.2227C117.466 19.2227 116.869 19.5167 116.449 20.1047C116.066 20.6274 115.875 21.2947 115.875 22.1067C115.875 22.9094 116.066 23.5721 116.449 24.0947C116.869 24.6827 117.466 24.9767 118.241 24.9767C118.997 24.9767 119.599 24.6827 120.047 24.0947C120.43 23.5534 120.621 22.8907 120.621 22.1067C120.621 21.3134 120.43 20.6461 120.047 20.1047C119.599 19.5167 118.997 19.2227 118.241 19.2227ZM123.644 18.4807L125.422 24.3467L127.102 18.4807H128.152L129.832 24.3467L131.61 18.4807H132.842L130.378 25.7188H129.314L127.634 19.8947L125.926 25.7188H124.876L122.412 18.4807H123.644Z" fill="#E3E3E3"/>
<rect x="16.8262" y="14.1724" width="17.6172" height="13.0926" rx="1.5" stroke="#E3E3E3"/>
<path d="M17.8345 14.647L24.9042 21.7167C25.2947 22.1072 25.9279 22.1072 26.3184 21.7167L33.3881 14.647" stroke="#E3E3E3"/>
</svg>
