<svg width="229" height="46" viewBox="0 0 229 46" fill="none" xmlns="http://www.w3.org/2000/svg">
<g filter="url(#filter0_b_3309_760)">
<rect width="229" height="46" rx="23" fill="white" fill-opacity="0.02"/>
<rect x="0.808594" y="0.808594" width="227.383" height="44.3828" rx="22.1914" stroke="url(#paint0_linear_3309_760)" stroke-width="1.61719"/>
<path d="M57.6542 29.108C56.6942 29.108 55.8062 28.952 54.9902 28.64C54.1862 28.316 53.4842 27.866 52.8842 27.29C52.2962 26.714 51.8342 26.036 51.4982 25.256C51.1742 24.476 51.0122 23.624 51.0122 22.7C51.0122 21.776 51.1742 20.924 51.4982 20.144C51.8342 19.364 52.3022 18.686 52.9022 18.11C53.5022 17.534 54.2042 17.09 55.0082 16.778C55.8242 16.454 56.7122 16.292 57.6722 16.292C58.6322 16.292 59.5082 16.442 60.3002 16.742C61.1042 17.042 61.7882 17.498 62.3522 18.11L61.5242 18.956C60.9962 18.428 60.4142 18.05 59.7782 17.822C59.1422 17.594 58.4582 17.48 57.7262 17.48C56.9462 17.48 56.2262 17.612 55.5662 17.876C54.9182 18.128 54.3482 18.494 53.8562 18.974C53.3762 19.442 52.9982 19.994 52.7222 20.63C52.4582 21.254 52.3262 21.944 52.3262 22.7C52.3262 23.444 52.4582 24.134 52.7222 24.77C52.9982 25.406 53.3762 25.964 53.8562 26.444C54.3482 26.912 54.9182 27.278 55.5662 27.542C56.2262 27.794 56.9402 27.92 57.7082 27.92C58.4282 27.92 59.1062 27.812 59.7422 27.596C60.3902 27.38 60.9842 27.014 61.5242 26.498L62.2802 27.506C61.6802 28.034 60.9782 28.436 60.1742 28.712C59.3702 28.976 58.5302 29.108 57.6542 29.108ZM61.0022 27.344V22.7H62.2802V27.506L61.0022 27.344ZM69.794 29.09C68.81 29.09 67.946 28.886 67.202 28.478C66.458 28.058 65.876 27.488 65.456 26.768C65.036 26.036 64.826 25.202 64.826 24.266C64.826 23.33 65.024 22.502 65.42 21.782C65.828 21.062 66.38 20.498 67.076 20.09C67.784 19.67 68.576 19.46 69.452 19.46C70.34 19.46 71.126 19.664 71.81 20.072C72.506 20.468 73.052 21.032 73.448 21.764C73.844 22.484 74.042 23.318 74.042 24.266C74.042 24.326 74.036 24.392 74.024 24.464C74.024 24.524 74.024 24.59 74.024 24.662H65.798V23.708H73.34L72.836 24.086C72.836 23.402 72.686 22.796 72.386 22.268C72.098 21.728 71.702 21.308 71.198 21.008C70.694 20.708 70.112 20.558 69.452 20.558C68.804 20.558 68.222 20.708 67.706 21.008C67.19 21.308 66.788 21.728 66.5 22.268C66.212 22.808 66.068 23.426 66.068 24.122V24.32C66.068 25.04 66.224 25.676 66.536 26.228C66.86 26.768 67.304 27.194 67.868 27.506C68.444 27.806 69.098 27.956 69.83 27.956C70.406 27.956 70.94 27.854 71.432 27.65C71.936 27.446 72.368 27.134 72.728 26.714L73.448 27.542C73.028 28.046 72.5 28.43 71.864 28.694C71.24 28.958 70.55 29.09 69.794 29.09ZM81.4673 19.46C82.2353 19.46 82.9073 19.61 83.4833 19.91C84.0713 20.198 84.5273 20.642 84.8513 21.242C85.1873 21.842 85.3553 22.598 85.3553 23.51V29H84.0773V23.636C84.0773 22.64 83.8253 21.89 83.3213 21.386C82.8293 20.87 82.1333 20.612 81.2333 20.612C80.5613 20.612 79.9733 20.75 79.4693 21.026C78.9773 21.29 78.5933 21.68 78.3173 22.196C78.0533 22.7 77.9213 23.312 77.9213 24.032V29H76.6433V19.55H77.8673V22.142L77.6693 21.656C77.9693 20.972 78.4493 20.438 79.1093 20.054C79.7693 19.658 80.5553 19.46 81.4673 19.46ZM92.8214 29.09C91.8374 29.09 90.9734 28.886 90.2294 28.478C89.4854 28.058 88.9034 27.488 88.4834 26.768C88.0634 26.036 87.8534 25.202 87.8534 24.266C87.8534 23.33 88.0514 22.502 88.4474 21.782C88.8554 21.062 89.4074 20.498 90.1034 20.09C90.8114 19.67 91.6034 19.46 92.4794 19.46C93.3674 19.46 94.1534 19.664 94.8374 20.072C95.5334 20.468 96.0794 21.032 96.4754 21.764C96.8714 22.484 97.0694 23.318 97.0694 24.266C97.0694 24.326 97.0634 24.392 97.0514 24.464C97.0514 24.524 97.0514 24.59 97.0514 24.662H88.8254V23.708H96.3674L95.8634 24.086C95.8634 23.402 95.7134 22.796 95.4134 22.268C95.1254 21.728 94.7294 21.308 94.2254 21.008C93.7214 20.708 93.1394 20.558 92.4794 20.558C91.8314 20.558 91.2494 20.708 90.7334 21.008C90.2174 21.308 89.8154 21.728 89.5274 22.268C89.2394 22.808 89.0954 23.426 89.0954 24.122V24.32C89.0954 25.04 89.2514 25.676 89.5634 26.228C89.8874 26.768 90.3314 27.194 90.8954 27.506C91.4714 27.806 92.1254 27.956 92.8574 27.956C93.4334 27.956 93.9674 27.854 94.4594 27.65C94.9634 27.446 95.3954 27.134 95.7554 26.714L96.4754 27.542C96.0554 28.046 95.5274 28.43 94.8914 28.694C94.2674 28.958 93.5774 29.09 92.8214 29.09ZM99.6707 29V19.55H100.895V22.124L100.769 21.674C101.033 20.954 101.477 20.408 102.101 20.036C102.725 19.652 103.499 19.46 104.423 19.46V20.702C104.375 20.702 104.327 20.702 104.279 20.702C104.231 20.69 104.183 20.684 104.135 20.684C103.139 20.684 102.359 20.99 101.795 21.602C101.231 22.202 100.949 23.06 100.949 24.176V29H99.6707ZM111.974 29V26.912L111.92 26.57V23.078C111.92 22.274 111.692 21.656 111.236 21.224C110.792 20.792 110.126 20.576 109.238 20.576C108.626 20.576 108.044 20.678 107.492 20.882C106.94 21.086 106.472 21.356 106.088 21.692L105.512 20.738C105.992 20.33 106.568 20.018 107.24 19.802C107.912 19.574 108.62 19.46 109.364 19.46C110.588 19.46 111.53 19.766 112.19 20.378C112.862 20.978 113.198 21.896 113.198 23.132V29H111.974ZM108.716 29.09C108.008 29.09 107.39 28.976 106.862 28.748C106.346 28.508 105.95 28.184 105.674 27.776C105.398 27.356 105.26 26.876 105.26 26.336C105.26 25.844 105.374 25.4 105.602 25.004C105.842 24.596 106.226 24.272 106.754 24.032C107.294 23.78 108.014 23.654 108.914 23.654H112.172V24.608H108.95C108.038 24.608 107.402 24.77 107.042 25.094C106.694 25.418 106.52 25.82 106.52 26.3C106.52 26.84 106.73 27.272 107.15 27.596C107.57 27.92 108.158 28.082 108.914 28.082C109.634 28.082 110.252 27.92 110.768 27.596C111.296 27.26 111.68 26.78 111.92 26.156L112.208 27.038C111.968 27.662 111.548 28.16 110.948 28.532C110.36 28.904 109.616 29.09 108.716 29.09ZM119.657 29.09C118.769 29.09 118.085 28.85 117.605 28.37C117.125 27.89 116.885 27.212 116.885 26.336V17.462H118.163V26.264C118.163 26.816 118.301 27.242 118.577 27.542C118.865 27.842 119.273 27.992 119.801 27.992C120.365 27.992 120.833 27.83 121.205 27.506L121.655 28.424C121.403 28.652 121.097 28.82 120.737 28.928C120.389 29.036 120.029 29.09 119.657 29.09ZM115.193 20.612V19.55H121.043V20.612H115.193ZM127.661 29.09C126.677 29.09 125.813 28.886 125.069 28.478C124.325 28.058 123.743 27.488 123.323 26.768C122.903 26.036 122.693 25.202 122.693 24.266C122.693 23.33 122.891 22.502 123.287 21.782C123.695 21.062 124.247 20.498 124.943 20.09C125.651 19.67 126.443 19.46 127.319 19.46C128.207 19.46 128.993 19.664 129.677 20.072C130.373 20.468 130.919 21.032 131.315 21.764C131.711 22.484 131.909 23.318 131.909 24.266C131.909 24.326 131.903 24.392 131.891 24.464C131.891 24.524 131.891 24.59 131.891 24.662H123.665V23.708H131.207L130.703 24.086C130.703 23.402 130.553 22.796 130.253 22.268C129.965 21.728 129.569 21.308 129.065 21.008C128.561 20.708 127.979 20.558 127.319 20.558C126.671 20.558 126.089 20.708 125.573 21.008C125.057 21.308 124.655 21.728 124.367 22.268C124.079 22.808 123.935 23.426 123.935 24.122V24.32C123.935 25.04 124.091 25.676 124.403 26.228C124.727 26.768 125.171 27.194 125.735 27.506C126.311 27.806 126.965 27.956 127.697 27.956C128.273 27.956 128.807 27.854 129.299 27.65C129.803 27.446 130.235 27.134 130.595 26.714L131.315 27.542C130.895 28.046 130.367 28.43 129.731 28.694C129.107 28.958 128.417 29.09 127.661 29.09ZM139.491 29V16.4H140.589L149.283 27.344H148.707V16.4H150.021V29H148.923L140.247 18.056H140.823V29H139.491ZM157.716 29.09C156.804 29.09 155.982 28.886 155.25 28.478C154.53 28.058 153.96 27.488 153.54 26.768C153.12 26.036 152.91 25.202 152.91 24.266C152.91 23.318 153.12 22.484 153.54 21.764C153.96 21.044 154.53 20.48 155.25 20.072C155.97 19.664 156.792 19.46 157.716 19.46C158.652 19.46 159.48 19.664 160.2 20.072C160.932 20.48 161.502 21.044 161.91 21.764C162.33 22.484 162.54 23.318 162.54 24.266C162.54 25.202 162.33 26.036 161.91 26.768C161.502 27.488 160.932 28.058 160.2 28.478C159.468 28.886 158.64 29.09 157.716 29.09ZM157.716 27.956C158.4 27.956 159.006 27.806 159.534 27.506C160.062 27.194 160.476 26.762 160.776 26.21C161.088 25.646 161.244 24.998 161.244 24.266C161.244 23.522 161.088 22.874 160.776 22.322C160.476 21.77 160.062 21.344 159.534 21.044C159.006 20.732 158.406 20.576 157.734 20.576C157.062 20.576 156.462 20.732 155.934 21.044C155.406 21.344 154.986 21.77 154.674 22.322C154.362 22.874 154.206 23.522 154.206 24.266C154.206 24.998 154.362 25.646 154.674 26.21C154.986 26.762 155.406 27.194 155.934 27.506C156.462 27.806 157.056 27.956 157.716 27.956ZM166.812 29L163.248 19.55H164.472L167.712 28.316H167.154L170.484 19.55H171.582L174.876 28.316H174.318L177.612 19.55H178.782L175.2 29H173.994L170.826 20.756H171.204L168.018 29H166.812Z" fill="white"/>
</g>
<defs>
<filter id="filter0_b_3309_760" x="-17.8699" y="-17.8699" width="264.74" height="81.7398" filterUnits="userSpaceOnUse" color-interpolation-filters="sRGB">
<feFlood flood-opacity="0" result="BackgroundImageFix"/>
<feGaussianBlur in="BackgroundImageFix" stdDeviation="8.93496"/>
<feComposite in2="SourceAlpha" operator="in" result="effect1_backgroundBlur_3309_760"/>
<feBlend mode="normal" in="SourceGraphic" in2="effect1_backgroundBlur_3309_760" result="shape"/>
</filter>
<linearGradient id="paint0_linear_3309_760" x1="-6.65313" y1="48.4477" x2="225.937" y2="12.2759" gradientUnits="userSpaceOnUse">
<stop stop-color="#01E069"/>
<stop offset="0.625" stop-color="#018CC5"/>
<stop offset="1" stop-color="#0163F2"/>
</linearGradient>
</defs>
</svg>
