<svg width="142" height="46" viewBox="0 0 142 46" fill="none" xmlns="http://www.w3.org/2000/svg">
<g filter="url(#filter0_b_3100_2568)">
<rect y="0.65625" width="142" height="45" rx="8" fill="black" fill-opacity="0.3"/>
<rect x="0.5" y="1.15625" width="141" height="44" rx="7.5" stroke="url(#paint0_linear_3100_2568)"/>
<g clip-path="url(#clip0_3100_2568)">
<path d="M31.0002 24.4902L29.6668 25.8236M29.6668 25.8236L31.0002 27.1569M29.6668 25.8236H35.3335V22.8236M38.6668 29.8236V16.4902H32.0002V21.8236H25.3335V29.8236H38.6668Z" stroke="white" stroke-width="1.2" stroke-linecap="round" stroke-linejoin="round"/>
</g>
<path d="M58.26 26.8922V23.7002H59.604V27.5222C58.624 28.3482 57.266 28.7683 55.894 28.7683C52.884 28.7683 50.672 26.6542 50.672 23.7562C50.672 20.8582 52.884 18.7442 55.922 18.7442C57.476 18.7442 58.792 19.2622 59.688 20.2562L58.82 21.1242C58.008 20.3402 57.084 19.9902 55.978 19.9902C53.71 19.9902 52.072 21.5722 52.072 23.7562C52.072 25.9122 53.71 27.5222 55.964 27.5222C56.79 27.5222 57.56 27.3402 58.26 26.8922ZM69.0745 24.9882C69.0745 25.1002 69.0605 25.2682 69.0465 25.3942H63.0265C63.1945 26.6962 64.2445 27.5642 65.7145 27.5642C66.5825 27.5642 67.3105 27.2702 67.8565 26.6682L68.5985 27.5362C67.9265 28.3202 66.9045 28.7403 65.6725 28.7403C63.2785 28.7403 61.6825 27.1582 61.6825 24.9462C61.6825 22.7482 63.2645 21.1662 65.4065 21.1662C67.5485 21.1662 69.0745 22.7062 69.0745 24.9882ZM65.4065 22.3002C64.1185 22.3002 63.1665 23.1682 63.0265 24.4282H67.7865C67.6465 23.1822 66.7085 22.3002 65.4065 22.3002ZM75.1827 21.1662C76.9887 21.1662 78.2627 22.2022 78.2627 24.3862V28.6562H76.9187V24.5403C76.9187 23.0842 76.1907 22.3702 74.9167 22.3702C73.4887 22.3702 72.5647 23.2242 72.5647 24.8342V28.6562H71.2207V21.2362H72.5087V22.3562C73.0547 21.6002 74.0067 21.1662 75.1827 21.1662ZM87.777 24.9882C87.777 25.1002 87.763 25.2682 87.749 25.3942H81.729C81.897 26.6962 82.947 27.5642 84.417 27.5642C85.285 27.5642 86.013 27.2702 86.559 26.6682L87.301 27.5362C86.629 28.3202 85.607 28.7403 84.375 28.7403C81.981 28.7403 80.385 27.1582 80.385 24.9462C80.385 22.7482 81.967 21.1662 84.109 21.1662C86.251 21.1662 87.777 22.7062 87.777 24.9882ZM84.109 22.3002C82.821 22.3002 81.869 23.1682 81.729 24.4282H86.489C86.349 23.1822 85.411 22.3002 84.109 22.3002ZM91.2113 22.4822C91.6873 21.6142 92.6113 21.1662 93.9133 21.1662V22.4682C93.8013 22.4542 93.7033 22.4542 93.6053 22.4542C92.1633 22.4542 91.2673 23.3362 91.2673 24.9603V28.6562H89.9233V21.2362H91.2113V22.4822ZM98.5381 21.1662C100.568 21.1662 101.716 22.1462 101.716 24.1762V28.6562H100.442V27.6762C99.9941 28.3482 99.1681 28.7403 98.0061 28.7403C96.3261 28.7403 95.2621 27.8442 95.2621 26.5562C95.2621 25.3662 96.0321 24.3862 98.2441 24.3862H100.372V24.1202C100.372 22.9862 99.7141 22.3282 98.3841 22.3282C97.5021 22.3282 96.6061 22.6362 96.0321 23.1262L95.4721 22.1182C96.2421 21.5022 97.3481 21.1662 98.5381 21.1662ZM98.2301 27.7042C99.2381 27.7042 100.036 27.2422 100.372 26.3882V25.3522H98.3001C96.9701 25.3522 96.5921 25.8702 96.5921 26.5002C96.5921 27.2422 97.2081 27.7042 98.2301 27.7042ZM108.235 27.2562L108.655 28.2222C108.249 28.5722 107.633 28.7403 107.031 28.7403C105.533 28.7403 104.679 27.9142 104.679 26.4162V22.3422H103.419V21.2362H104.679V19.6122H106.023V21.2362H108.151V22.3422H106.023V26.3602C106.023 27.1582 106.443 27.6062 107.185 27.6062C107.577 27.6062 107.955 27.4802 108.235 27.2562ZM117.02 24.9882C117.02 25.1002 117.006 25.2682 116.992 25.3942H110.972C111.14 26.6962 112.19 27.5642 113.66 27.5642C114.528 27.5642 115.256 27.2702 115.802 26.6682L116.544 27.5362C115.872 28.3202 114.85 28.7403 113.618 28.7403C111.224 28.7403 109.628 27.1582 109.628 24.9462C109.628 22.7482 111.21 21.1662 113.352 21.1662C115.494 21.1662 117.02 22.7062 117.02 24.9882ZM113.352 22.3002C112.064 22.3002 111.112 23.1682 110.972 24.4282H115.732C115.592 23.1822 114.654 22.3002 113.352 22.3002Z" fill="white"/>
</g>
<defs>
<filter id="filter0_b_3100_2568" x="-8" y="-7.34375" width="158" height="61" filterUnits="userSpaceOnUse" color-interpolation-filters="sRGB">
<feFlood flood-opacity="0" result="BackgroundImageFix"/>
<feGaussianBlur in="BackgroundImageFix" stdDeviation="4"/>
<feComposite in2="SourceAlpha" operator="in" result="effect1_backgroundBlur_3100_2568"/>
<feBlend mode="normal" in="SourceGraphic" in2="effect1_backgroundBlur_3100_2568" result="shape"/>
</filter>
<linearGradient id="paint0_linear_3100_2568" x1="7.57707e-07" y1="-152.906" x2="192.546" y2="-122.554" gradientUnits="userSpaceOnUse">
<stop offset="0.08" stop-color="#0162F3"/>
<stop offset="0.49941" stop-color="white"/>
<stop offset="0.9" stop-color="#5495F7"/>
</linearGradient>
<clipPath id="clip0_3100_2568">
<rect width="16" height="16" fill="white" transform="translate(24 15.1562)"/>
</clipPath>
</defs>
</svg>
