<svg width="151" height="268" viewBox="0 0 151 268" fill="none" xmlns="http://www.w3.org/2000/svg">
<g filter="url(#filter0_d_3178_214)">
<rect width="147" height="222" rx="6" fill="url(#paint0_linear_3178_214)" shape-rendering="crispEdges"/>
<rect width="147" height="222" rx="6" fill="url(#paint1_linear_3178_214)" shape-rendering="crispEdges"/>
</g>
<g style="mix-blend-mode:overlay" filter="url(#filter1_d_3178_214)">
<path d="M87.75 114.031C90.0833 112.684 90.0833 109.316 87.75 107.969L69.75 97.5766C67.4167 96.2295 64.5 97.9134 64.5 100.608L64.5 121.392C64.5 124.087 67.4167 125.771 69.75 124.423L87.75 114.031Z" stroke="white" stroke-width="3" shape-rendering="crispEdges"/>
</g>
<path d="M5.894 247.639C5.14733 247.639 4.45667 247.517 3.822 247.275C3.19667 247.023 2.65067 246.673 2.184 246.225C1.72667 245.777 1.36733 245.249 1.106 244.643C0.854 244.036 0.728 243.373 0.728 242.655C0.728 241.936 0.854 241.273 1.106 240.667C1.36733 240.06 1.73133 239.533 2.198 239.085C2.66467 238.637 3.21067 238.291 3.836 238.049C4.47067 237.797 5.16133 237.671 5.908 237.671C6.65467 237.671 7.336 237.787 7.952 238.021C8.57733 238.254 9.10933 238.609 9.548 239.085L8.904 239.743C8.49333 239.332 8.04067 239.038 7.546 238.861C7.05133 238.683 6.51933 238.595 5.95 238.595C5.34333 238.595 4.78333 238.697 4.27 238.903C3.766 239.099 3.32267 239.383 2.94 239.757C2.56667 240.121 2.27267 240.55 2.058 241.045C1.85267 241.53 1.75 242.067 1.75 242.655C1.75 243.233 1.85267 243.77 2.058 244.265C2.27267 244.759 2.56667 245.193 2.94 245.567C3.32267 245.931 3.766 246.215 4.27 246.421C4.78333 246.617 5.33867 246.715 5.936 246.715C6.496 246.715 7.02333 246.631 7.518 246.463C8.022 246.295 8.484 246.01 8.904 245.609L9.492 246.393C9.02533 246.803 8.47933 247.116 7.854 247.331C7.22867 247.536 6.57533 247.639 5.894 247.639ZM8.498 246.267V242.655H9.492V246.393L8.498 246.267ZM15.3361 247.625C14.5708 247.625 13.8988 247.466 13.3201 247.149C12.7415 246.822 12.2888 246.379 11.9621 245.819C11.6355 245.249 11.4721 244.601 11.4721 243.873C11.4721 243.145 11.6261 242.501 11.9341 241.941C12.2515 241.381 12.6808 240.942 13.2221 240.625C13.7728 240.298 14.3888 240.135 15.0701 240.135C15.7608 240.135 16.3721 240.293 16.9041 240.611C17.4455 240.919 17.8701 241.357 18.1781 241.927C18.4861 242.487 18.6401 243.135 18.6401 243.873C18.6401 243.919 18.6355 243.971 18.6261 244.027C18.6261 244.073 18.6261 244.125 18.6261 244.181H12.2281V243.439H18.0941L17.7021 243.733C17.7021 243.201 17.5855 242.729 17.3521 242.319C17.1281 241.899 16.8201 241.572 16.4281 241.339C16.0361 241.105 15.5835 240.989 15.0701 240.989C14.5661 240.989 14.1135 241.105 13.7121 241.339C13.3108 241.572 12.9981 241.899 12.7741 242.319C12.5501 242.739 12.4381 243.219 12.4381 243.761V243.915C12.4381 244.475 12.5595 244.969 12.8021 245.399C13.0541 245.819 13.3995 246.15 13.8381 246.393C14.2861 246.626 14.7948 246.743 15.3641 246.743C15.8121 246.743 16.2275 246.663 16.6101 246.505C17.0021 246.346 17.3381 246.103 17.6181 245.777L18.1781 246.421C17.8515 246.813 17.4408 247.111 16.9461 247.317C16.4608 247.522 15.9241 247.625 15.3361 247.625ZM24.4153 240.135C25.0127 240.135 25.5353 240.251 25.9833 240.485C26.4407 240.709 26.7953 241.054 27.0473 241.521C27.3087 241.987 27.4393 242.575 27.4393 243.285V247.555H26.4453V243.383C26.4453 242.608 26.2493 242.025 25.8573 241.633C25.4747 241.231 24.9333 241.031 24.2333 241.031C23.7107 241.031 23.2533 241.138 22.8613 241.353C22.4787 241.558 22.18 241.861 21.9653 242.263C21.76 242.655 21.6573 243.131 21.6573 243.691V247.555H20.6633V240.205H21.6153V242.221L21.4613 241.843C21.6947 241.311 22.068 240.895 22.5813 240.597C23.0947 240.289 23.706 240.135 24.4153 240.135ZM33.2463 247.625C32.4809 247.625 31.8089 247.466 31.2303 247.149C30.6516 246.822 30.1989 246.379 29.8723 245.819C29.5456 245.249 29.3823 244.601 29.3823 243.873C29.3823 243.145 29.5363 242.501 29.8443 241.941C30.1616 241.381 30.5909 240.942 31.1323 240.625C31.6829 240.298 32.2989 240.135 32.9803 240.135C33.6709 240.135 34.2823 240.293 34.8143 240.611C35.3556 240.919 35.7803 241.357 36.0883 241.927C36.3963 242.487 36.5503 243.135 36.5503 243.873C36.5503 243.919 36.5456 243.971 36.5363 244.027C36.5363 244.073 36.5363 244.125 36.5363 244.181H30.1383V243.439H36.0043L35.6123 243.733C35.6123 243.201 35.4956 242.729 35.2623 242.319C35.0383 241.899 34.7303 241.572 34.3383 241.339C33.9463 241.105 33.4936 240.989 32.9803 240.989C32.4763 240.989 32.0236 241.105 31.6223 241.339C31.2209 241.572 30.9083 241.899 30.6843 242.319C30.4603 242.739 30.3483 243.219 30.3483 243.761V243.915C30.3483 244.475 30.4696 244.969 30.7123 245.399C30.9643 245.819 31.3096 246.15 31.7483 246.393C32.1963 246.626 32.7049 246.743 33.2743 246.743C33.7223 246.743 34.1376 246.663 34.5203 246.505C34.9123 246.346 35.2483 246.103 35.5283 245.777L36.0883 246.421C35.7616 246.813 35.3509 247.111 34.8563 247.317C34.3709 247.522 33.8343 247.625 33.2463 247.625ZM38.5735 247.555V240.205H39.5255V242.207L39.4275 241.857C39.6328 241.297 39.9782 240.872 40.4635 240.583C40.9488 240.284 41.5508 240.135 42.2695 240.135V241.101C42.2322 241.101 42.1948 241.101 42.1575 241.101C42.1202 241.091 42.0828 241.087 42.0455 241.087C41.2708 241.087 40.6642 241.325 40.2255 241.801C39.7868 242.267 39.5675 242.935 39.5675 243.803V247.555H38.5735ZM48.1424 247.555V245.931L48.1004 245.665V242.949C48.1004 242.323 47.9231 241.843 47.5684 241.507C47.2231 241.171 46.7051 241.003 46.0144 241.003C45.5384 241.003 45.0857 241.082 44.6564 241.241C44.2271 241.399 43.8631 241.609 43.5644 241.871L43.1164 241.129C43.4897 240.811 43.9377 240.569 44.4604 240.401C44.9831 240.223 45.5337 240.135 46.1124 240.135C47.0644 240.135 47.7971 240.373 48.3104 240.849C48.8331 241.315 49.0944 242.029 49.0944 242.991V247.555H48.1424ZM45.6084 247.625C45.0577 247.625 44.5771 247.536 44.1664 247.359C43.7651 247.172 43.4571 246.92 43.2424 246.603C43.0277 246.276 42.9204 245.903 42.9204 245.483C42.9204 245.1 43.0091 244.755 43.1864 244.447C43.3731 244.129 43.6717 243.877 44.0824 243.691C44.5024 243.495 45.0624 243.397 45.7624 243.397H48.2964V244.139H45.7904C45.0811 244.139 44.5864 244.265 44.3064 244.517C44.0357 244.769 43.9004 245.081 43.9004 245.455C43.9004 245.875 44.0637 246.211 44.3904 246.463C44.7171 246.715 45.1744 246.841 45.7624 246.841C46.3224 246.841 46.8031 246.715 47.2044 246.463C47.6151 246.201 47.9137 245.828 48.1004 245.343L48.3244 246.029C48.1377 246.514 47.8111 246.901 47.3444 247.191C46.8871 247.48 46.3084 247.625 45.6084 247.625ZM54.1182 247.625C53.4275 247.625 52.8955 247.438 52.5222 247.065C52.1489 246.691 51.9622 246.164 51.9622 245.483V238.581H52.9562V245.427C52.9562 245.856 53.0635 246.187 53.2782 246.421C53.5022 246.654 53.8195 246.771 54.2302 246.771C54.6689 246.771 55.0329 246.645 55.3222 246.393L55.6722 247.107C55.4762 247.284 55.2382 247.415 54.9582 247.499C54.6875 247.583 54.4075 247.625 54.1182 247.625ZM50.6462 241.031V240.205H55.1962V241.031H50.6462ZM57.4817 247.555V240.205H58.4757V247.555H57.4817ZM57.9857 238.581C57.7804 238.581 57.6077 238.511 57.4677 238.371C57.3277 238.231 57.2577 238.063 57.2577 237.867C57.2577 237.671 57.3277 237.507 57.4677 237.377C57.6077 237.237 57.7804 237.167 57.9857 237.167C58.191 237.167 58.3637 237.232 58.5037 237.363C58.6437 237.493 58.7137 237.657 58.7137 237.853C58.7137 238.058 58.6437 238.231 58.5037 238.371C58.373 238.511 58.2004 238.581 57.9857 238.581ZM64.9935 240.135C65.5908 240.135 66.1135 240.251 66.5615 240.485C67.0188 240.709 67.3735 241.054 67.6255 241.521C67.8868 241.987 68.0175 242.575 68.0175 243.285V247.555H67.0235V243.383C67.0235 242.608 66.8275 242.025 66.4355 241.633C66.0528 241.231 65.5115 241.031 64.8115 241.031C64.2888 241.031 63.8315 241.138 63.4395 241.353C63.0568 241.558 62.7581 241.861 62.5435 242.263C62.3381 242.655 62.2355 243.131 62.2355 243.691V247.555H61.2415V240.205H62.1935V242.221L62.0395 241.843C62.2728 241.311 62.6461 240.895 63.1595 240.597C63.6728 240.289 64.2841 240.135 64.9935 240.135ZM73.8384 250.341C73.1664 250.341 72.5224 250.243 71.9064 250.047C71.2904 249.851 70.7911 249.571 70.4084 249.207L70.9124 248.451C71.2577 248.759 71.6824 249.001 72.1864 249.179C72.6997 249.365 73.2411 249.459 73.8104 249.459C74.7437 249.459 75.4297 249.239 75.8684 248.801C76.3071 248.371 76.5264 247.699 76.5264 246.785V244.951L76.6664 243.691L76.5684 242.431V240.205H77.5204V246.659C77.5204 247.928 77.2077 248.857 76.5824 249.445C75.9664 250.042 75.0517 250.341 73.8384 250.341ZM73.6564 247.275C72.9564 247.275 72.3264 247.125 71.7664 246.827C71.2064 246.519 70.7631 246.094 70.4364 245.553C70.1191 245.011 69.9604 244.391 69.9604 243.691C69.9604 242.991 70.1191 242.375 70.4364 241.843C70.7631 241.301 71.2064 240.881 71.7664 240.583C72.3264 240.284 72.9564 240.135 73.6564 240.135C74.3097 240.135 74.8977 240.27 75.4204 240.541C75.9431 240.811 76.3584 241.213 76.6664 241.745C76.9744 242.277 77.1284 242.925 77.1284 243.691C77.1284 244.456 76.9744 245.105 76.6664 245.637C76.3584 246.169 75.9431 246.575 75.4204 246.855C74.8977 247.135 74.3097 247.275 73.6564 247.275ZM73.7544 246.393C74.2957 246.393 74.7764 246.281 75.1964 246.057C75.6164 245.823 75.9477 245.506 76.1904 245.105C76.4331 244.694 76.5544 244.223 76.5544 243.691C76.5544 243.159 76.4331 242.692 76.1904 242.291C75.9477 241.889 75.6164 241.577 75.1964 241.353C74.7764 241.119 74.2957 241.003 73.7544 241.003C73.2224 241.003 72.7417 241.119 72.3124 241.353C71.8924 241.577 71.5611 241.889 71.3184 242.291C71.0851 242.692 70.9684 243.159 70.9684 243.691C70.9684 244.223 71.0851 244.694 71.3184 245.105C71.5611 245.506 71.8924 245.823 72.3124 246.057C72.7417 246.281 73.2224 246.393 73.7544 246.393ZM80.3844 247.625C80.1791 247.625 80.0017 247.55 79.8524 247.401C79.7124 247.251 79.6424 247.069 79.6424 246.855C79.6424 246.631 79.7124 246.449 79.8524 246.309C80.0017 246.169 80.1791 246.099 80.3844 246.099C80.5897 246.099 80.7624 246.169 80.9024 246.309C81.0517 246.449 81.1264 246.631 81.1264 246.855C81.1264 247.069 81.0517 247.251 80.9024 247.401C80.7624 247.55 80.5897 247.625 80.3844 247.625ZM83.3512 247.625C83.1459 247.625 82.9685 247.55 82.8192 247.401C82.6792 247.251 82.6092 247.069 82.6092 246.855C82.6092 246.631 82.6792 246.449 82.8192 246.309C82.9685 246.169 83.1459 246.099 83.3512 246.099C83.5565 246.099 83.7292 246.169 83.8692 246.309C84.0185 246.449 84.0932 246.631 84.0932 246.855C84.0932 247.069 84.0185 247.251 83.8692 247.401C83.7292 247.55 83.5565 247.625 83.3512 247.625ZM86.318 247.625C86.1127 247.625 85.9353 247.55 85.786 247.401C85.646 247.251 85.576 247.069 85.576 246.855C85.576 246.631 85.646 246.449 85.786 246.309C85.9353 246.169 86.1127 246.099 86.318 246.099C86.5233 246.099 86.696 246.169 86.836 246.309C86.9853 246.449 87.06 246.631 87.06 246.855C87.06 247.069 86.9853 247.251 86.836 247.401C86.696 247.55 86.5233 247.625 86.318 247.625Z" fill="white"/>
<defs>
<filter id="filter0_d_3178_214" x="-4" y="0" width="155" height="230" filterUnits="userSpaceOnUse" color-interpolation-filters="sRGB">
<feFlood flood-opacity="0" result="BackgroundImageFix"/>
<feColorMatrix in="SourceAlpha" type="matrix" values="0 0 0 0 0 0 0 0 0 0 0 0 0 0 0 0 0 0 127 0" result="hardAlpha"/>
<feOffset dy="4"/>
<feGaussianBlur stdDeviation="2"/>
<feComposite in2="hardAlpha" operator="out"/>
<feColorMatrix type="matrix" values="0 0 0 0 0 0 0 0 0 0 0 0 0 0 0 0 0 0 0.25 0"/>
<feBlend mode="normal" in2="BackgroundImageFix" result="effect1_dropShadow_3178_214"/>
<feBlend mode="normal" in="SourceGraphic" in2="effect1_dropShadow_3178_214" result="shape"/>
</filter>
<filter id="filter1_d_3178_214" x="59" y="95.5996" width="36" height="38.8008" filterUnits="userSpaceOnUse" color-interpolation-filters="sRGB">
<feFlood flood-opacity="0" result="BackgroundImageFix"/>
<feColorMatrix in="SourceAlpha" type="matrix" values="0 0 0 0 0 0 0 0 0 0 0 0 0 0 0 0 0 0 127 0" result="hardAlpha"/>
<feOffset dy="4"/>
<feGaussianBlur stdDeviation="2"/>
<feComposite in2="hardAlpha" operator="out"/>
<feColorMatrix type="matrix" values="0 0 0 0 0 0 0 0 0 0 0 0 0 0 0 0 0 0 0.25 0"/>
<feBlend mode="normal" in2="BackgroundImageFix" result="effect1_dropShadow_3178_214"/>
<feBlend mode="normal" in="SourceGraphic" in2="effect1_dropShadow_3178_214" result="shape"/>
</filter>
<linearGradient id="paint0_linear_3178_214" x1="147" y1="111" x2="0" y2="111" gradientUnits="userSpaceOnUse">
<stop stop-color="white" stop-opacity="0.08"/>
<stop offset="1" stop-color="white" stop-opacity="0.03"/>
</linearGradient>
<linearGradient id="paint1_linear_3178_214" x1="147" y1="111" x2="0" y2="111" gradientUnits="userSpaceOnUse">
<stop stop-color="white" stop-opacity="0"/>
<stop offset="0.700914" stop-color="white" stop-opacity="0.1"/>
<stop offset="0.798123" stop-color="white" stop-opacity="0.1"/>
<stop offset="1" stop-color="white" stop-opacity="0"/>
</linearGradient>
</defs>
</svg>
