<svg width="214" height="78" viewBox="0 0 214 78" fill="none" xmlns="http://www.w3.org/2000/svg">
<path d="M79.024 17.2H82.288V62H79.024V17.2ZM49.072 62H45.808V17.2H49.072V62ZM79.408 40.688H48.688V37.808H79.408V40.688ZM110.477 62.256C107.106 62.256 104.12 61.5307 101.517 60.08C98.957 58.6293 96.9303 56.624 95.437 54.064C93.9863 51.504 93.261 48.5813 93.261 45.296C93.261 41.968 93.9437 39.0453 95.309 36.528C96.717 33.968 98.637 31.9627 101.069 30.512C103.501 29.0613 106.232 28.336 109.261 28.336C112.29 28.336 115 29.04 117.389 30.448C119.821 31.856 121.72 33.84 123.085 36.4C124.493 38.9173 125.197 41.84 125.197 45.168C125.197 45.296 125.176 45.4453 125.133 45.616C125.133 45.744 125.133 45.8933 125.133 46.064H95.629V43.568H123.405L122.125 44.784C122.168 42.1813 121.613 39.856 120.461 37.808C119.352 35.7173 117.837 34.096 115.917 32.944C113.997 31.7493 111.778 31.152 109.261 31.152C106.786 31.152 104.568 31.7493 102.605 32.944C100.685 34.096 99.1703 35.7173 98.061 37.808C96.9517 39.856 96.397 42.2027 96.397 44.848V45.424C96.397 48.1547 96.9943 50.5867 98.189 52.72C99.4263 54.8107 101.112 56.4533 103.245 57.648C105.378 58.8 107.81 59.376 110.541 59.376C112.674 59.376 114.658 58.992 116.493 58.224C118.37 57.456 119.949 56.2827 121.229 54.704L123.085 56.816C121.634 58.608 119.8 59.9733 117.581 60.912C115.405 61.808 113.037 62.256 110.477 62.256ZM135.097 62V14.512H138.297V62H135.097ZM151.784 62V14.512H154.984V62H151.784ZM181.528 62.256C178.328 62.256 175.469 61.5307 172.952 60.08C170.477 58.6293 168.493 56.624 167 54.064C165.549 51.504 164.824 48.5813 164.824 45.296C164.824 41.968 165.549 39.0453 167 36.528C168.493 33.968 170.477 31.9627 172.952 30.512C175.469 29.0613 178.328 28.336 181.528 28.336C184.728 28.336 187.586 29.0613 190.104 30.512C192.621 31.9627 194.605 33.968 196.056 36.528C197.506 39.0453 198.232 41.968 198.232 45.296C198.232 48.5813 197.506 51.504 196.056 54.064C194.605 56.624 192.621 58.6293 190.104 60.08C187.586 61.5307 184.728 62.256 181.528 62.256ZM181.528 59.376C184.088 59.376 186.392 58.8 188.44 57.648C190.488 56.4533 192.088 54.7893 193.24 52.656C194.392 50.5227 194.968 48.0693 194.968 45.296C194.968 42.48 194.392 40.0267 193.24 37.936C192.088 35.8027 190.488 34.16 188.44 33.008C186.392 31.8133 184.088 31.216 181.528 31.216C178.968 31.216 176.664 31.8133 174.616 33.008C172.61 34.16 171.01 35.8027 169.816 37.936C168.664 40.0267 168.088 42.48 168.088 45.296C168.088 48.0693 168.664 50.5227 169.816 52.656C171.01 54.7893 172.61 56.4533 174.616 57.648C176.664 58.8 178.968 59.376 181.528 59.376ZM204.025 71.152L206.521 60.336L206.841 62.192C206.03 62.192 205.347 61.936 204.793 61.424C204.281 60.912 204.025 60.272 204.025 59.504C204.025 58.736 204.281 58.096 204.793 57.584C205.347 57.072 205.987 56.816 206.713 56.816C207.523 56.816 208.163 57.0933 208.633 57.648C209.145 58.16 209.401 58.7787 209.401 59.504C209.401 59.8027 209.379 60.1013 209.337 60.4C209.294 60.6987 209.23 60.9973 209.145 61.296C209.059 61.5947 208.953 61.9787 208.825 62.448L206.329 71.152H204.025Z" fill="white"/>
<path d="M21.75 42.0311C24.0833 40.6839 24.0833 37.3161 21.75 35.9689L9.75 29.0407C7.41667 27.6936 4.5 29.3775 4.5 32.0718L4.5 45.9282C4.5 48.6225 7.41667 50.3064 9.75 48.9593L21.75 42.0311Z" stroke="white" stroke-width="3"/>
</svg>
