<svg width="42" height="51" viewBox="0 0 42 51" fill="none" xmlns="http://www.w3.org/2000/svg">
<path d="M11.9675 48.7328L2.00696 41.5147C1.84601 41.398 1.75073 41.2113 1.75073 41.0126V20.0202C1.75073 19.8472 1.82293 19.6822 1.94989 19.5648L20.5113 2.40573C20.9048 2.04193 21.5434 2.31497 21.5522 2.85083L22.0071 30.3862C22.0106 30.5962 21.9075 30.7937 21.7333 30.9109L8.13254 40.0638C7.72064 40.341 7.16623 40.0459 7.16623 39.5494V21.4106C7.16623 21.2044 7.26872 21.0117 7.43968 20.8965L29.8462 5.78946C30.2581 5.51177 30.813 5.80688 30.813 6.30361V34.6451C30.813 34.8927 30.6657 35.1165 30.4384 35.2145L13.0798 42.7008C12.6704 42.8774 12.2141 42.5772 12.2141 42.1314V23.7596C12.2141 23.5109 12.3628 23.2862 12.5917 23.1889L39.2217 11.8711C39.6306 11.6973 40.0843 11.9975 40.0843 12.4418V40.2502C40.0843 40.5252 39.9031 40.7674 39.6392 40.8451L12.5063 48.8256C12.322 48.8798 12.123 48.8455 11.9675 48.7328Z" stroke="url(#paint0_linear_2814_86)" stroke-width="2.59901"/>
<defs>
<linearGradient id="paint0_linear_2814_86" x1="37.0801" y1="7.60403" x2="3.80994" y2="55.864" gradientUnits="userSpaceOnUse">
<stop stop-color="#0057FF"/>
<stop offset="1" stop-color="#00FF47"/>
</linearGradient>
</defs>
</svg>
