<svg width="958" height="911" viewBox="0 0 958 911" fill="none" xmlns="http://www.w3.org/2000/svg">
<mask id="mask0_3100_191" style="mask-type:alpha" maskUnits="userSpaceOnUse" x="152" y="190" width="654" height="487">
<path d="M619.5 460C722.501 460 806 399.558 806 325C806 250.442 722.501 190 619.5 190C516.499 190 440.5 250.5 433 325C433 325 433 338.5 388.5 343.5C344 348.5 304 350 304 350C220.053 350 152 423.201 152 513.5C152 603.799 220.053 677 304 677C387.947 677 456 603.799 456 513.5C456 513.5 456 484.423 512 471.5C568 458.577 619.5 460 619.5 460Z" fill="url(#paint0_radial_3100_191)"/>
<path d="M619.5 460C722.501 460 806 399.558 806 325C806 250.442 722.501 190 619.5 190C516.499 190 440.5 250.5 433 325C433 325 433 338.5 388.5 343.5C344 348.5 304 350 304 350C220.053 350 152 423.201 152 513.5C152 603.799 220.053 677 304 677C387.947 677 456 603.799 456 513.5C456 513.5 456 484.423 512 471.5C568 458.577 619.5 460 619.5 460Z" fill="url(#paint1_radial_3100_191)"/>
<path d="M619.5 460C722.501 460 806 399.558 806 325C806 250.442 722.501 190 619.5 190C516.499 190 440.5 250.5 433 325C433 325 433 338.5 388.5 343.5C344 348.5 304 350 304 350C220.053 350 152 423.201 152 513.5C152 603.799 220.053 677 304 677C387.947 677 456 603.799 456 513.5C456 513.5 456 484.423 512 471.5C568 458.577 619.5 460 619.5 460Z" fill="url(#paint2_radial_3100_191)"/>
</mask>
<g mask="url(#mask0_3100_191)">
<line opacity="0.6" x1="164.5" y1="-45" x2="164.5" y2="910.8" stroke="white"/>
<line opacity="0.6" x1="182.5" y1="-45" x2="182.5" y2="910.8" stroke="white"/>
<line opacity="0.6" x1="200.5" y1="-45" x2="200.5" y2="910.8" stroke="white"/>
<line opacity="0.6" x1="218.5" y1="-45" x2="218.5" y2="910.8" stroke="white"/>
<line opacity="0.6" x1="236.5" y1="-45" x2="236.5" y2="910.8" stroke="white"/>
<line opacity="0.6" x1="254.501" y1="-45" x2="254.501" y2="910.8" stroke="white"/>
<line opacity="0.6" x1="272.501" y1="-45" x2="272.501" y2="910.8" stroke="white"/>
<line opacity="0.6" x1="290.501" y1="-45" x2="290.501" y2="910.8" stroke="white"/>
<line opacity="0.6" x1="308.501" y1="-45" x2="308.501" y2="910.8" stroke="white"/>
<line opacity="0.6" x1="326.501" y1="-45" x2="326.501" y2="910.8" stroke="white"/>
<line opacity="0.6" x1="344.501" y1="-45" x2="344.501" y2="910.8" stroke="white"/>
<line opacity="0.6" x1="362.501" y1="-45" x2="362.501" y2="910.8" stroke="white"/>
<line opacity="0.6" x1="380.501" y1="-45" x2="380.501" y2="910.8" stroke="white"/>
<line opacity="0.6" x1="398.501" y1="-45" x2="398.501" y2="910.8" stroke="white"/>
<line opacity="0.6" x1="416.501" y1="-45" x2="416.501" y2="910.8" stroke="white"/>
<line opacity="0.6" x1="434.501" y1="-45" x2="434.501" y2="910.8" stroke="white"/>
<line opacity="0.6" x1="452.501" y1="-45" x2="452.501" y2="910.8" stroke="white"/>
<line opacity="0.6" x1="470.501" y1="-45" x2="470.501" y2="910.8" stroke="white"/>
<line opacity="0.6" x1="488.501" y1="-45" x2="488.501" y2="910.8" stroke="white"/>
<line opacity="0.6" x1="506.501" y1="-45" x2="506.501" y2="910.8" stroke="white"/>
<line opacity="0.6" x1="524.501" y1="-45" x2="524.501" y2="910.8" stroke="white"/>
<line opacity="0.6" x1="542.501" y1="-45" x2="542.501" y2="910.8" stroke="white"/>
<line opacity="0.6" x1="560.501" y1="-45" x2="560.501" y2="910.8" stroke="white"/>
<line opacity="0.6" x1="578.501" y1="-45" x2="578.501" y2="910.8" stroke="white"/>
<line opacity="0.6" x1="596.501" y1="-45" x2="596.501" y2="910.8" stroke="white"/>
<line opacity="0.6" x1="614.501" y1="-45" x2="614.501" y2="910.8" stroke="white"/>
<line opacity="0.6" x1="632.501" y1="-45" x2="632.501" y2="910.8" stroke="white"/>
<line opacity="0.6" x1="650.501" y1="-45" x2="650.501" y2="910.8" stroke="white"/>
<line opacity="0.6" x1="668.501" y1="-45" x2="668.501" y2="910.8" stroke="white"/>
<line opacity="0.6" x1="686.502" y1="-45" x2="686.502" y2="910.8" stroke="white"/>
<line opacity="0.6" x1="704.502" y1="-45" x2="704.502" y2="910.8" stroke="white"/>
<line opacity="0.6" x1="722.502" y1="-45" x2="722.502" y2="910.8" stroke="white"/>
<line opacity="0.6" x1="740.502" y1="-45" x2="740.502" y2="910.8" stroke="white"/>
<line opacity="0.6" x1="758.502" y1="-45" x2="758.502" y2="910.8" stroke="white"/>
<line opacity="0.6" x1="776.502" y1="-45" x2="776.502" y2="910.8" stroke="white"/>
<line opacity="0.6" x1="794.502" y1="-45" x2="794.502" y2="910.8" stroke="white"/>
<line opacity="0.6" x1="957.6" y1="190.502" x2="0.000122026" y2="190.502" stroke="white"/>
<line opacity="0.6" x1="957.6" y1="208.502" x2="0.000122026" y2="208.502" stroke="white"/>
<line opacity="0.6" x1="957.6" y1="226.502" x2="0.000122026" y2="226.502" stroke="white"/>
<line opacity="0.6" x1="957.6" y1="244.502" x2="0.000122026" y2="244.502" stroke="white"/>
<line opacity="0.6" x1="957.6" y1="262.502" x2="0.000122026" y2="262.502" stroke="white"/>
<line opacity="0.6" x1="957.6" y1="280.502" x2="0.000122026" y2="280.502" stroke="white"/>
<line opacity="0.6" x1="957.6" y1="298.502" x2="0.000122026" y2="298.502" stroke="white"/>
<line opacity="0.6" x1="957.6" y1="316.502" x2="0.000122026" y2="316.502" stroke="white"/>
<line opacity="0.6" x1="957.6" y1="334.502" x2="0.000122026" y2="334.502" stroke="white"/>
<line opacity="0.6" x1="957.6" y1="352.502" x2="0.000122026" y2="352.502" stroke="white"/>
<line opacity="0.6" x1="957.6" y1="370.502" x2="0.000122026" y2="370.502" stroke="white"/>
<line opacity="0.6" x1="957.6" y1="388.502" x2="0.000122026" y2="388.502" stroke="white"/>
<line opacity="0.6" x1="957.6" y1="406.502" x2="0.000122026" y2="406.502" stroke="white"/>
<line opacity="0.6" x1="957.6" y1="424.502" x2="0.000122026" y2="424.502" stroke="white"/>
<line opacity="0.6" x1="957.6" y1="442.502" x2="0.000122026" y2="442.502" stroke="white"/>
<line opacity="0.6" x1="957.6" y1="460.502" x2="0.000122026" y2="460.502" stroke="white"/>
<line opacity="0.6" x1="957.6" y1="478.502" x2="0.000122026" y2="478.502" stroke="white"/>
<line opacity="0.6" x1="957.6" y1="496.502" x2="0.000122026" y2="496.502" stroke="white"/>
<line opacity="0.6" x1="957.6" y1="514.502" x2="0.000122026" y2="514.502" stroke="white"/>
<line opacity="0.6" x1="957.6" y1="532.502" x2="0.000122026" y2="532.502" stroke="white"/>
<line opacity="0.6" x1="957.6" y1="550.502" x2="0.000122026" y2="550.502" stroke="white"/>
<line opacity="0.6" x1="957.6" y1="568.502" x2="0.000122026" y2="568.502" stroke="white"/>
<line opacity="0.6" x1="957.6" y1="586.502" x2="0.000122026" y2="586.502" stroke="white"/>
<line opacity="0.6" x1="957.6" y1="604.502" x2="0.000122026" y2="604.502" stroke="white"/>
<line opacity="0.6" x1="957.6" y1="622.504" x2="0.000122026" y2="622.504" stroke="white"/>
<line opacity="0.6" x1="957.6" y1="640.504" x2="0.000122026" y2="640.504" stroke="white"/>
<line opacity="0.6" x1="957.6" y1="658.504" x2="0.000122026" y2="658.504" stroke="white"/>
<line opacity="0.6" x1="957.6" y1="676.504" x2="0.000122026" y2="676.504" stroke="white"/>
</g>
<defs>
<radialGradient id="paint0_radial_3100_191" cx="0" cy="0" r="1" gradientUnits="userSpaceOnUse" gradientTransform="translate(301.5 518) rotate(90) scale(138.5 144.271)">
<stop stop-color="white"/>
<stop offset="0.500115" stop-color="white" stop-opacity="0.298281"/>
<stop offset="1" stop-color="white" stop-opacity="0"/>
</radialGradient>
<radialGradient id="paint1_radial_3100_191" cx="0" cy="0" r="1" gradientUnits="userSpaceOnUse" gradientTransform="translate(619 328.5) rotate(89.5245) scale(120.504 167.571)">
<stop stop-color="white"/>
<stop offset="0.500571" stop-color="white" stop-opacity="0.302051"/>
<stop offset="1" stop-color="white" stop-opacity="0"/>
</radialGradient>
<radialGradient id="paint2_radial_3100_191" cx="0" cy="0" r="1" gradientUnits="userSpaceOnUse" gradientTransform="translate(446.5 408.5) rotate(59.2645) scale(43.0465 34.2725)">
<stop stop-color="white"/>
<stop offset="0.497994" stop-color="white" stop-opacity="0.203006"/>
<stop offset="1" stop-color="white" stop-opacity="0"/>
</radialGradient>
</defs>
</svg>
