<svg width="232" height="48" viewBox="0 0 232 48" fill="none" xmlns="http://www.w3.org/2000/svg">
<g filter="url(#filter0_b_2532_223)">
<rect x="0.239014" y="0.666748" width="231.753" height="46.6927" rx="23.3463" fill="white" fill-opacity="0.02"/>
<rect x="1.04761" y="1.47534" width="230.135" height="45.0755" rx="22.5377" stroke="url(#paint0_linear_2532_223)" stroke-width="1.61719"/>
</g>
<path d="M68.3292 31.4055C67.3201 31.4055 66.3498 31.2438 65.4183 30.9203C64.4997 30.584 63.7882 30.157 63.2836 29.6395L63.8464 28.5334C64.3251 28.9991 64.9655 29.3937 65.7676 29.7172C66.5827 30.0277 67.4365 30.1829 68.3292 30.1829C69.1831 30.1829 69.8752 30.0794 70.4057 29.8724C70.9491 29.6525 71.3437 29.3614 71.5895 28.9991C71.8482 28.6369 71.9776 28.2358 71.9776 27.7959C71.9776 27.2655 71.8223 26.8386 71.5118 26.5151C71.2143 26.1917 70.8197 25.9394 70.3281 25.7583C69.8364 25.5642 69.2931 25.396 68.6979 25.2537C68.1028 25.1114 67.5077 24.9626 66.9126 24.8074C66.3174 24.6392 65.7676 24.4192 65.263 24.1476C64.7714 23.8759 64.3703 23.5201 64.0598 23.0802C63.7623 22.6274 63.6135 22.0387 63.6135 21.3142C63.6135 20.6415 63.7882 20.027 64.1375 19.4707C64.4997 18.9014 65.0496 18.4486 65.787 18.1122C66.5244 17.7629 67.4689 17.5882 68.6203 17.5882C69.3836 17.5882 70.1405 17.6982 70.8908 17.9182C71.6412 18.1252 72.2881 18.4162 72.8315 18.7914L72.3463 19.9364C71.7641 19.5483 71.1431 19.2637 70.4833 19.0825C69.8364 18.9014 69.209 18.8108 68.6009 18.8108C67.7858 18.8108 67.1131 18.9208 66.5827 19.1407C66.0522 19.3607 65.6576 19.6582 65.3989 20.0334C65.1531 20.3957 65.0302 20.8097 65.0302 21.2754C65.0302 21.8059 65.1789 22.2328 65.4765 22.5562C65.787 22.8797 66.1881 23.132 66.6797 23.3131C67.1842 23.4942 67.7341 23.6559 68.3292 23.7982C68.9243 23.9406 69.513 24.0958 70.0952 24.264C70.6903 24.4322 71.2337 24.6521 71.7253 24.9238C72.2299 25.1826 72.6309 25.5319 72.9285 25.9717C73.239 26.4116 73.3942 26.9873 73.3942 27.6989C73.3942 28.3587 73.2131 28.9732 72.8509 29.5425C72.4886 30.0988 71.9323 30.5516 71.1819 30.9009C70.4445 31.2373 69.4936 31.4055 68.3292 31.4055ZM79.4535 31.3861C78.4962 31.3861 77.7587 31.1273 77.2412 30.6098C76.7237 30.0923 76.465 29.3614 76.465 28.4169V18.8497H77.8428V28.3393C77.8428 28.9344 77.9916 29.3937 78.2892 29.7172C78.5997 30.0406 79.0395 30.2023 79.6088 30.2023C80.2169 30.2023 80.7214 30.0277 81.1225 29.6783L81.6076 30.6681C81.336 30.9139 81.006 31.095 80.6179 31.2114C80.2427 31.3279 79.8546 31.3861 79.4535 31.3861ZM74.6408 22.2457V21.1008H80.9478V22.2457H74.6408ZM90.5006 31.2891V29.0379L90.4423 28.6692V24.9044C90.4423 24.0376 90.1965 23.3713 89.7049 22.9056C89.2262 22.4398 88.5082 22.2069 87.5508 22.2069C86.891 22.2069 86.2635 22.3169 85.6684 22.5368C85.0733 22.7568 84.5687 23.0479 84.1547 23.4101L83.5337 22.3816C84.0512 21.9417 84.6722 21.6053 85.3967 21.3725C86.1212 21.1267 86.8845 21.0037 87.6867 21.0037C89.0063 21.0037 90.0219 21.3337 90.7334 21.9935C91.4579 22.6403 91.8202 23.6301 91.8202 24.9626V31.2891H90.5006ZM86.988 31.3861C86.2247 31.3861 85.5584 31.2632 84.9892 31.0174C84.4329 30.7586 84.0059 30.4093 83.7084 29.9694C83.4108 29.5166 83.262 28.9991 83.262 28.4169C83.262 27.8865 83.3849 27.4078 83.6307 26.9809C83.8895 26.541 84.3035 26.1917 84.8727 25.9329C85.4549 25.6612 86.2312 25.5254 87.2015 25.5254H90.714V26.5539H87.2403C86.2571 26.5539 85.5714 26.7286 85.1832 27.0779C84.8081 27.4272 84.6205 27.8606 84.6205 28.3781C84.6205 28.9603 84.8469 29.4261 85.2997 29.7754C85.7525 30.1247 86.3864 30.2993 87.2015 30.2993C87.9777 30.2993 88.644 30.1247 89.2003 29.7754C89.7696 29.4131 90.1836 28.8956 90.4423 28.2229L90.7528 29.1738C90.4941 29.8465 90.0413 30.3834 89.3944 30.7845C88.7605 31.1856 87.9583 31.3861 86.988 31.3861ZM95.5626 31.2891V21.1008H96.8822V23.8759L96.7463 23.3907C97.031 22.6145 97.5097 22.0258 98.1824 21.6247C98.8552 21.2107 99.6896 21.0037 100.686 21.0037V22.3428C100.634 22.3428 100.582 22.3428 100.531 22.3428C100.479 22.3298 100.427 22.3234 100.375 22.3234C99.3015 22.3234 98.4606 22.6533 97.8525 23.3131C97.2444 23.96 96.9404 24.885 96.9404 26.0882V31.2891H95.5626ZM106.857 31.3861C105.9 31.3861 105.162 31.1273 104.645 30.6098C104.127 30.0923 103.869 29.3614 103.869 28.4169V18.8497H105.247V28.3393C105.247 28.9344 105.395 29.3937 105.693 29.7172C106.003 30.0406 106.443 30.2023 107.013 30.2023C107.621 30.2023 108.125 30.0277 108.526 29.6783L109.011 30.6681C108.74 30.9139 108.41 31.095 108.022 31.2114C107.646 31.3279 107.258 31.3861 106.857 31.3861ZM102.045 22.2457V21.1008H108.352V22.2457H102.045ZM116.89 31.2891V17.7047H118.326V30.0471H125.933V31.2891H116.89ZM128.026 31.2891V21.1008H129.404V31.2891H128.026ZM128.725 18.8497C128.44 18.8497 128.201 18.7526 128.007 18.5586C127.813 18.3645 127.716 18.1316 127.716 17.8599C127.716 17.5882 127.813 17.3618 128.007 17.1807C128.201 16.9867 128.44 16.8896 128.725 16.8896C129.01 16.8896 129.249 16.9802 129.443 17.1613C129.637 17.3424 129.734 17.5688 129.734 17.8405C129.734 18.1252 129.637 18.3645 129.443 18.5586C129.262 18.7526 129.023 18.8497 128.725 18.8497ZM135.974 31.3861C135.133 31.3861 134.338 31.2697 133.587 31.0368C132.837 30.791 132.248 30.4869 131.821 30.1247L132.442 29.0379C132.856 29.3484 133.387 29.6201 134.034 29.853C134.681 30.0729 135.36 30.1829 136.071 30.1829C137.042 30.1829 137.74 30.0341 138.167 29.7366C138.594 29.4261 138.808 29.0185 138.808 28.514C138.808 28.1388 138.685 27.8477 138.439 27.6407C138.206 27.4207 137.895 27.259 137.507 27.1555C137.119 27.0391 136.686 26.9421 136.207 26.8644C135.728 26.7868 135.25 26.6962 134.771 26.5927C134.305 26.4892 133.878 26.3405 133.49 26.1464C133.102 25.9394 132.785 25.6612 132.539 25.3119C132.306 24.9626 132.19 24.4969 132.19 23.9147C132.19 23.3584 132.345 22.8603 132.656 22.4204C132.966 21.9805 133.419 21.6377 134.014 21.3919C134.622 21.1331 135.36 21.0037 136.227 21.0037C136.886 21.0037 137.546 21.0943 138.206 21.2754C138.866 21.4436 139.409 21.67 139.836 21.9547L139.235 23.0608C138.782 22.7503 138.297 22.5304 137.779 22.401C137.262 22.2587 136.744 22.1875 136.227 22.1875C135.308 22.1875 134.629 22.3492 134.189 22.6727C133.762 22.9832 133.548 23.3842 133.548 23.8759C133.548 24.264 133.665 24.568 133.898 24.788C134.144 25.0079 134.461 25.1826 134.849 25.3119C135.25 25.4284 135.683 25.5254 136.149 25.603C136.628 25.6807 137.1 25.7777 137.566 25.8941C138.044 25.9976 138.478 26.1464 138.866 26.3405C139.267 26.5216 139.584 26.7868 139.817 27.1361C140.063 27.4725 140.185 27.9188 140.185 28.4752C140.185 29.0703 140.017 29.5878 139.681 30.0277C139.357 30.4546 138.879 30.791 138.245 31.0368C137.624 31.2697 136.867 31.3861 135.974 31.3861ZM145.935 31.3861C144.978 31.3861 144.24 31.1273 143.723 30.6098C143.205 30.0923 142.947 29.3614 142.947 28.4169V18.8497H144.324V28.3393C144.324 28.9344 144.473 29.3937 144.771 29.7172C145.081 30.0406 145.521 30.2023 146.09 30.2023C146.698 30.2023 147.203 30.0277 147.604 29.6783L148.089 30.6681C147.818 30.9139 147.488 31.095 147.099 31.2114C146.724 31.3279 146.336 31.3861 145.935 31.3861ZM141.122 22.2457V21.1008H147.429V22.2457H141.122ZM154.565 31.3861C153.504 31.3861 152.573 31.1662 151.77 30.7263C150.968 30.2735 150.341 29.6589 149.888 28.8827C149.435 28.0935 149.209 27.1943 149.209 26.1852C149.209 25.1761 149.422 24.2834 149.849 23.5072C150.289 22.7309 150.884 22.1228 151.635 21.683C152.398 21.2302 153.252 21.0037 154.196 21.0037C155.154 21.0037 156.001 21.2237 156.738 21.6636C157.489 22.0905 158.078 22.6986 158.504 23.4877C158.931 24.264 159.145 25.1632 159.145 26.1852C159.145 26.2499 159.138 26.3211 159.125 26.3987C159.125 26.4634 159.125 26.5345 159.125 26.6122H150.257V25.5836H158.388L157.845 25.9912C157.845 25.2537 157.683 24.6004 157.359 24.0311C157.049 23.4489 156.622 22.9961 156.079 22.6727C155.535 22.3492 154.908 22.1875 154.196 22.1875C153.498 22.1875 152.87 22.3492 152.314 22.6727C151.758 22.9961 151.324 23.4489 151.014 24.0311C150.703 24.6133 150.548 25.2796 150.548 26.03V26.2434C150.548 27.0197 150.716 27.7054 151.052 28.3005C151.402 28.8827 151.88 29.342 152.489 29.6783C153.11 30.0018 153.815 30.1635 154.604 30.1635C155.225 30.1635 155.801 30.0535 156.331 29.8336C156.874 29.6137 157.34 29.2773 157.728 28.8245L158.504 29.7172C158.052 30.2605 157.482 30.6745 156.797 30.9592C156.124 31.2438 155.38 31.3861 154.565 31.3861ZM167.15 21.0037C167.978 21.0037 168.703 21.1655 169.324 21.4889C169.958 21.7994 170.449 22.2781 170.799 22.925C171.161 23.5718 171.342 24.3869 171.342 25.3702V31.2891H169.964V25.506C169.964 24.4322 169.692 23.6236 169.149 23.0802C168.619 22.5239 167.868 22.2457 166.898 22.2457C166.173 22.2457 165.54 22.3945 164.996 22.6921C164.466 22.9767 164.052 23.3972 163.754 23.9535C163.47 24.4969 163.327 25.1567 163.327 25.9329V31.2891H161.949V21.1008H163.269V23.8953L163.056 23.3713C163.379 22.6339 163.896 22.0582 164.608 21.6442C165.32 21.2172 166.167 21.0037 167.15 21.0037ZM175.064 31.2891V21.1008H176.442V31.2891H175.064ZM175.762 18.8497C175.478 18.8497 175.238 18.7526 175.044 18.5586C174.85 18.3645 174.753 18.1316 174.753 17.8599C174.753 17.5882 174.85 17.3618 175.044 17.1807C175.238 16.9867 175.478 16.8896 175.762 16.8896C176.047 16.8896 176.286 16.9802 176.48 17.1613C176.674 17.3424 176.772 17.5688 176.772 17.8405C176.772 18.1252 176.674 18.3645 176.48 18.5586C176.299 18.7526 176.06 18.8497 175.762 18.8497ZM185.476 21.0037C186.304 21.0037 187.029 21.1655 187.65 21.4889C188.284 21.7994 188.775 22.2781 189.125 22.925C189.487 23.5718 189.668 24.3869 189.668 25.3702V31.2891H188.29V25.506C188.29 24.4322 188.018 23.6236 187.475 23.0802C186.945 22.5239 186.194 22.2457 185.224 22.2457C184.499 22.2457 183.866 22.3945 183.322 22.6921C182.792 22.9767 182.378 23.3972 182.08 23.9535C181.796 24.4969 181.653 25.1567 181.653 25.9329V31.2891H180.275V21.1008H181.595V23.8953L181.382 23.3713C181.705 22.6339 182.222 22.0582 182.934 21.6442C183.646 21.2172 184.493 21.0037 185.476 21.0037ZM197.737 35.1509C196.805 35.1509 195.913 35.0151 195.059 34.7434C194.205 34.4717 193.513 34.0836 192.982 33.579L193.681 32.5311C194.16 32.958 194.748 33.2944 195.447 33.5402C196.158 33.7989 196.909 33.9283 197.698 33.9283C198.992 33.9283 199.943 33.6243 200.551 33.0162C201.159 32.4211 201.463 31.4896 201.463 30.2217V27.6795L201.657 25.9329L201.521 24.1864V21.1008H202.841V30.0471C202.841 31.8066 202.407 33.0938 201.54 33.9089C200.687 34.7369 199.419 35.1509 197.737 35.1509ZM197.485 30.9009C196.514 30.9009 195.641 30.6939 194.865 30.2799C194.088 29.853 193.474 29.2643 193.021 28.514C192.581 27.7636 192.361 26.9032 192.361 25.9329C192.361 24.9626 192.581 24.1087 193.021 23.3713C193.474 22.6209 194.088 22.0387 194.865 21.6247C195.641 21.2107 196.514 21.0037 197.485 21.0037C198.39 21.0037 199.205 21.1913 199.93 21.5665C200.654 21.9417 201.23 22.498 201.657 23.2355C202.084 23.9729 202.297 24.8721 202.297 25.9329C202.297 26.9938 202.084 27.893 201.657 28.6304C201.23 29.3678 200.654 29.9306 199.93 30.3187C199.205 30.7069 198.39 30.9009 197.485 30.9009ZM197.62 29.6783C198.371 29.6783 199.037 29.5231 199.619 29.2126C200.201 28.8892 200.661 28.4493 200.997 27.893C201.333 27.3237 201.502 26.6704 201.502 25.9329C201.502 25.1955 201.333 24.5486 200.997 23.9923C200.661 23.436 200.201 23.0026 199.619 22.6921C199.037 22.3687 198.371 22.2069 197.62 22.2069C196.883 22.2069 196.217 22.3687 195.622 22.6921C195.039 23.0026 194.58 23.436 194.244 23.9923C193.92 24.5486 193.759 25.1955 193.759 25.9329C193.759 26.6704 193.92 27.3237 194.244 27.893C194.58 28.4493 195.039 28.8892 195.622 29.2126C196.217 29.5231 196.883 29.6783 197.62 29.6783Z" fill="white"/>
<path d="M43.928 24.0131L32.9234 30.3666L32.9234 17.6596L43.928 24.0131Z" fill="white"/>
<defs>
<filter id="filter0_b_2532_223" x="-17.6309" y="-17.2032" width="267.493" height="82.4325" filterUnits="userSpaceOnUse" color-interpolation-filters="sRGB">
<feFlood flood-opacity="0" result="BackgroundImageFix"/>
<feGaussianBlur in="BackgroundImageFix" stdDeviation="8.93496"/>
<feComposite in2="SourceAlpha" operator="in" result="effect1_backgroundBlur_2532_223"/>
<feBlend mode="normal" in="SourceGraphic" in2="effect1_backgroundBlur_2532_223" result="shape"/>
</filter>
<linearGradient id="paint0_linear_2532_223" x1="-54.4894" y1="37.9075" x2="227.634" y2="47.3594" gradientUnits="userSpaceOnUse">
<stop stop-color="#131B40"/>
<stop offset="0.625" stop-color="#3350D2"/>
<stop offset="1" stop-color="#8E9FEB"/>
</linearGradient>
</defs>
</svg>
