<svg width="129" height="19" viewBox="0 0 129 19" fill="none" xmlns="http://www.w3.org/2000/svg">
<path d="M0.625507 18.1226V1.32256H8.49751C10.5135 1.32256 12.0495 1.72256 13.1055 2.52256C14.1615 3.30656 14.6895 4.36256 14.6895 5.69056C14.6895 6.58656 14.4815 7.35456 14.0655 7.99456C13.6495 8.61856 13.0895 9.10656 12.3855 9.45856C11.6975 9.79456 10.9455 9.96256 10.1295 9.96256L10.5615 9.09856C11.5055 9.09856 12.3535 9.27456 13.1055 9.62656C13.8575 9.96256 14.4495 10.4586 14.8815 11.1146C15.3295 11.7706 15.5535 12.5866 15.5535 13.5626C15.5535 15.0026 15.0015 16.1226 13.8975 16.9226C12.7935 17.7226 11.1535 18.1226 8.97751 18.1226H0.625507ZM3.74551 15.6746H8.78551C9.95351 15.6746 10.8495 15.4826 11.4735 15.0986C12.0975 14.7146 12.4095 14.0986 12.4095 13.2506C12.4095 12.4186 12.0975 11.8106 11.4735 11.4266C10.8495 11.0266 9.95351 10.8266 8.78551 10.8266H3.50551V8.40256H8.16151C9.24951 8.40256 10.0815 8.21056 10.6575 7.82656C11.2495 7.44256 11.5455 6.86656 11.5455 6.09856C11.5455 5.31456 11.2495 4.73056 10.6575 4.34656C10.0815 3.96256 9.24951 3.77056 8.16151 3.77056H3.74551V15.6746ZM24.8353 18.2906C23.5233 18.2906 22.3553 18.0106 21.3313 17.4506C20.3073 16.8746 19.4993 16.0906 18.9073 15.0986C18.3153 14.1066 18.0193 12.9786 18.0193 11.7146C18.0193 10.4346 18.3153 9.30656 18.9073 8.33056C19.4993 7.33856 20.3073 6.56256 21.3313 6.00256C22.3553 5.44256 23.5233 5.16256 24.8353 5.16256C26.1633 5.16256 27.3393 5.44256 28.3633 6.00256C29.4033 6.56256 30.2113 7.33056 30.7873 8.30656C31.3793 9.28256 31.6753 10.4186 31.6753 11.7146C31.6753 12.9786 31.3793 14.1066 30.7873 15.0986C30.2113 16.0906 29.4033 16.8746 28.3633 17.4506C27.3393 18.0106 26.1633 18.2906 24.8353 18.2906ZM24.8353 15.7226C25.5713 15.7226 26.2273 15.5626 26.8033 15.2426C27.3793 14.9226 27.8273 14.4586 28.1473 13.8506C28.4833 13.2426 28.6513 12.5306 28.6513 11.7146C28.6513 10.8826 28.4833 10.1706 28.1473 9.57856C27.8273 8.97056 27.3793 8.50656 26.8033 8.18656C26.2273 7.86656 25.5793 7.70656 24.8593 7.70656C24.1233 7.70656 23.4673 7.86656 22.8913 8.18656C22.3313 8.50656 21.8833 8.97056 21.5473 9.57856C21.2113 10.1706 21.0433 10.8826 21.0433 11.7146C21.0433 12.5306 21.2113 13.2426 21.5473 13.8506C21.8833 14.4586 22.3313 14.9226 22.8913 15.2426C23.4673 15.5626 24.1153 15.7226 24.8353 15.7226ZM40.7841 18.2906C39.4721 18.2906 38.3041 18.0106 37.2801 17.4506C36.2561 16.8746 35.4481 16.0906 34.8561 15.0986C34.2641 14.1066 33.9681 12.9786 33.9681 11.7146C33.9681 10.4346 34.2641 9.30656 34.8561 8.33056C35.4481 7.33856 36.2561 6.56256 37.2801 6.00256C38.3041 5.44256 39.4721 5.16256 40.7841 5.16256C42.1121 5.16256 43.2881 5.44256 44.3121 6.00256C45.3521 6.56256 46.1601 7.33056 46.7361 8.30656C47.3281 9.28256 47.6241 10.4186 47.6241 11.7146C47.6241 12.9786 47.3281 14.1066 46.7361 15.0986C46.1601 16.0906 45.3521 16.8746 44.3121 17.4506C43.2881 18.0106 42.1121 18.2906 40.7841 18.2906ZM40.7841 15.7226C41.5201 15.7226 42.1761 15.5626 42.7521 15.2426C43.3281 14.9226 43.7761 14.4586 44.0961 13.8506C44.4321 13.2426 44.6001 12.5306 44.6001 11.7146C44.6001 10.8826 44.4321 10.1706 44.0961 9.57856C43.7761 8.97056 43.3281 8.50656 42.7521 8.18656C42.1761 7.86656 41.5281 7.70656 40.8081 7.70656C40.0721 7.70656 39.4161 7.86656 38.8401 8.18656C38.2801 8.50656 37.8321 8.97056 37.4961 9.57856C37.1601 10.1706 36.9921 10.8826 36.9921 11.7146C36.9921 12.5306 37.1601 13.2426 37.4961 13.8506C37.8321 14.4586 38.2801 14.9226 38.8401 15.2426C39.4161 15.5626 40.0641 15.7226 40.7841 15.7226ZM53.4208 15.2666L53.4928 11.4986L60.1888 5.30656H63.7888L58.1008 11.0186L56.5168 12.3386L53.4208 15.2666ZM50.9728 18.1226V0.314558H53.9728V18.1226H50.9728ZM60.6448 18.1226L55.9648 12.3386L57.8608 9.93856L64.2928 18.1226H60.6448ZM70.0082 18.1226V3.96256H64.4402V1.32256H78.6962V3.96256H73.1282V18.1226H70.0082ZM88.446 18.1226V15.5306L88.278 14.9786V10.4426C88.278 9.56256 88.014 8.88256 87.486 8.40256C86.958 7.90656 86.158 7.65856 85.086 7.65856C84.366 7.65856 83.654 7.77056 82.95 7.99456C82.262 8.21856 81.678 8.53056 81.198 8.93056L80.022 6.74656C80.71 6.21856 81.526 5.82656 82.47 5.57056C83.43 5.29856 84.422 5.16256 85.446 5.16256C87.302 5.16256 88.734 5.61056 89.742 6.50656C90.766 7.38656 91.278 8.75456 91.278 10.6106V18.1226H88.446ZM84.414 18.2906C83.454 18.2906 82.614 18.1306 81.894 17.8106C81.174 17.4746 80.614 17.0186 80.214 16.4426C79.83 15.8506 79.638 15.1866 79.638 14.4506C79.638 13.7306 79.806 13.0826 80.142 12.5066C80.494 11.9306 81.062 11.4746 81.846 11.1386C82.63 10.8026 83.67 10.6346 84.966 10.6346H88.686V12.6266H85.182C84.158 12.6266 83.47 12.7946 83.118 13.1306C82.766 13.4506 82.59 13.8506 82.59 14.3306C82.59 14.8746 82.806 15.3066 83.238 15.6266C83.67 15.9466 84.27 16.1066 85.038 16.1066C85.774 16.1066 86.43 15.9386 87.006 15.6026C87.598 15.2666 88.022 14.7706 88.278 14.1146L88.782 15.9146C88.494 16.6666 87.974 17.2506 87.222 17.6666C86.486 18.0826 85.55 18.2906 84.414 18.2906ZM95.6081 18.1226V0.314558H98.6081V18.1226H95.6081ZM105.474 15.2666L105.546 11.4986L112.242 5.30656H115.842L110.154 11.0186L108.57 12.3386L105.474 15.2666ZM103.026 18.1226V0.314558H106.026V18.1226H103.026ZM112.698 18.1226L108.018 12.3386L109.914 9.93856L116.346 18.1226H112.698ZM122.325 18.2906C121.253 18.2906 120.221 18.1546 119.229 17.8826C118.253 17.5946 117.477 17.2506 116.901 16.8506L118.053 14.5706C118.629 14.9386 119.317 15.2426 120.117 15.4826C120.917 15.7226 121.717 15.8426 122.517 15.8426C123.461 15.8426 124.141 15.7146 124.557 15.4586C124.989 15.2026 125.205 14.8586 125.205 14.4266C125.205 14.0746 125.061 13.8106 124.773 13.6346C124.485 13.4426 124.109 13.2986 123.645 13.2026C123.181 13.1066 122.661 13.0186 122.085 12.9386C121.525 12.8586 120.957 12.7546 120.381 12.6266C119.821 12.4826 119.309 12.2826 118.845 12.0266C118.381 11.7546 118.005 11.3946 117.717 10.9466C117.429 10.4986 117.285 9.90656 117.285 9.17056C117.285 8.35456 117.517 7.65056 117.981 7.05856C118.445 6.45056 119.093 5.98656 119.925 5.66656C120.773 5.33056 121.773 5.16256 122.925 5.16256C123.789 5.16256 124.661 5.25856 125.541 5.45056C126.421 5.64256 127.149 5.91456 127.725 6.26656L126.573 8.54656C125.965 8.17856 125.349 7.93056 124.725 7.80256C124.117 7.65856 123.509 7.58656 122.901 7.58656C121.989 7.58656 121.309 7.72256 120.861 7.99456C120.429 8.26656 120.213 8.61056 120.213 9.02656C120.213 9.41056 120.357 9.69856 120.645 9.89056C120.933 10.0826 121.309 10.2346 121.773 10.3466C122.237 10.4586 122.749 10.5546 123.309 10.6346C123.885 10.6986 124.453 10.8026 125.013 10.9466C125.573 11.0906 126.085 11.2906 126.549 11.5466C127.029 11.7866 127.413 12.1306 127.701 12.5786C127.989 13.0266 128.133 13.6106 128.133 14.3306C128.133 15.1306 127.893 15.8266 127.413 16.4186C126.949 17.0106 126.285 17.4746 125.421 17.8106C124.557 18.1306 123.525 18.2906 122.325 18.2906Z" fill="#99B8F2"/>
</svg>
